<svg width="1700" height="734" viewBox="0 0 1700 734" fill="none" xmlns="http://www.w3.org/2000/svg">
<path d="M48.8709 130.827C122.821 76.9128 183.237 10.1819 303.78 67.0826C336.55 82.566 427.292 5.01524 542.921 72.1152C574.851 90.6515 695.998 14.9963 768.923 50.3077C841.848 85.6193 948.542 38.4646 1036.97 35.2102C1152.86 30.9326 1154.94 86.6756 1271.86 84.629C1381.36 82.7172 1424.04 56.1789 1515.65 62.1676C1587.79 66.8814 1657.69 93.99 1686.07 134.182C1715.61 176.019 1642.34 186.453 1647.12 256.841C1651.64 323.22 1710.8 305.673 1696.42 358.682C1682.84 408.806 1631.59 414.744 1636.17 456.027C1640.58 495.885 1743.91 508.399 1678.19 565.316C1648.31 591.183 1665.52 669.271 1609.86 694.484C1540.67 725.819 1519.04 648.42 1384.17 680.661C1319.32 696.178 1309.78 731.472 1258.16 733.083C1181.74 735.465 1157.67 695.02 1060.94 688.16C1008.85 684.469 1010.46 695.809 918.505 701.63C799.486 709.179 755.021 668.432 647.329 674.672C528.573 681.55 554.458 727.48 477.512 721.089C387.295 713.59 377.703 680.024 293.978 679.152C219.345 678.38 199.766 704.767 137.852 697.117C90.9966 691.33 40.6192 668.6 28.2942 640.217C7.63864 592.693 110.075 567.262 91.2856 515.914C78.619 481.273 25.0881 474.027 33.7603 448.529C43.8778 418.787 79.2497 420.783 85.7933 393.121C91.9426 367.237 32.8405 346.05 25.5349 306.261C21.9083 286.466 58.4102 244.864 58.4102 244.864C73.1792 195.378 15.8115 154.916 48.8709 130.827Z" fill="#FFF4A2"/>
<path d="M23.5894 95.8515C97.5656 41.9369 157.982 -24.794 278.498 32.1067C311.269 47.5901 402.011 -29.9607 517.64 37.1392C549.569 55.6756 670.717 -19.9796 743.642 15.3318C819.852 52.2367 923.261 3.48862 1011.69 0.234277C1127.58 -4.04334 1129.66 51.6999 1246.57 49.6534C1356.08 47.741 1398.76 21.203 1490.37 27.1916C1562.5 31.9054 1632.41 59.0139 1660.79 99.2066C1690.33 141.044 1617.06 151.478 1621.84 221.866C1626.36 288.244 1685.52 270.697 1671.14 323.706C1657.56 373.83 1606.31 379.768 1610.88 421.052C1615.3 460.909 1718.63 473.423 1652.91 530.341C1623.03 556.208 1640.24 634.295 1584.58 659.508C1515.39 690.844 1493.76 613.444 1358.89 645.685C1294.04 661.202 1284.5 696.497 1232.88 698.107C1156.46 700.489 1132.39 660.045 1035.66 653.184C983.572 649.493 985.175 660.833 893.224 666.654C774.205 674.203 729.74 633.456 622.048 639.697C503.292 646.574 529.177 692.504 452.231 686.113C362.014 678.614 352.422 645.048 268.696 644.175C194.063 643.404 174.485 669.791 112.571 662.142C65.7151 656.354 15.3377 633.624 3.0127 605.241C-17.6428 557.717 84.7939 532.286 66.0042 480.938C53.3375 446.298 -0.19337 439.051 8.4788 413.553C18.5963 383.811 53.9682 385.807 60.5118 358.145C66.6611 332.261 7.55902 311.075 0.253378 271.284C-3.37316 251.49 33.1288 209.888 33.1288 209.888C47.8977 160.402 -9.46996 119.94 23.5894 95.8515Z" fill="#FFC3E7"/>
</svg>
