<?xml version="1.0" encoding="UTF-8"?><svg id="c" xmlns="http://www.w3.org/2000/svg" width="214.41" height="161.16" viewBox="0 0 214.41 161.16"><defs><style>.d{fill:#a2dfff;}.d,.e{stroke:#3fa9f5;stroke-miterlimit:10;stroke-width:3px;}.e{fill:none;stroke-linecap:round;}</style></defs><path class="d" d="M100.8,1.51S6.8,10.51,43.8,94.51c0,0,34,73,116,17,0,0,58-96-59-110Z"/><path class="d" d="M49.3,104.01S53.88,13.02,140.8,12.01"/><path class="d" d="M61.55,116.43s7.92-99.67,91.45-97.84"/><path class="d" d="M74.85,125.8s7.71-96.56,89.34-94.76"/><path class="d" d="M149.24,31.88s23.81,18.66,24.19,40.65"/><path class="d" d="M134.83,35.21s29.01,31.13,29.47,67.8"/><path class="d" d="M119.27,44.21s29.01,34.34,29.47,74.8"/><path class="d" d="M104.3,53.79s29.01,33.16,29.47,72.22"/><path class="d" d="M94.31,66.89s27.12,29.94,25.42,63.01"/><path class="d" d="M83.92,84.65s25.44,24.39,22.13,47.75"/><path class="d" d="M79.78,102.6s16.62,15.57,14.52,30.41"/><path class="d" d="M37.67,77.13s8.72-8.6,16.93-4.61"/><path class="d" d="M35.5,63.38s13.81-8.15,26.8-4.37"/><path class="d" d="M36.02,47.04s18.17-8.15,35.28-4.37"/><path class="d" d="M46.07,28.34s18.56-2.86,32.7,5.4"/><path class="d" d="M65.95,11.93s15.57,3.8,22.25,15.57"/><path class="d" d="M85.68,4.77s12.76,4.31,15.3,14.78"/><path class="d" d="M104.5,2.02s9.81,3.95,10.94,12.23"/><path class="e" d="M135.05,67.76c15.22-14.09,37.64-17.66,55.16-9.42,2.24,1.05,16.56,7.8,21.28,19.43,3.81,9.39-1.13,15.84-2.3,17.27-14.47,7.29-23.52,15.15-29.07,20.92-11.82,12.27-19.32,27.02-31.85,24.07-4.17-.98-5.18-2.95-9.08-3.24-13.06-.96-16.5,17.52-16.5,17.52,0,0-17.98,10.57-27.02,1.97-9.04-8.6-25.37-3.32-25.37-3.32,0,0-15.4-2.7-19.87-10.44-4.47-7.74-48.94-13.4-48.94-13.4"/></svg>