<?xml version="1.0" encoding="UTF-8"?><svg id="b" xmlns="http://www.w3.org/2000/svg" width="294.53" height="248.23" viewBox="0 0 294.53 248.23"><defs><style>.c{fill:#a2dfff;stroke:#a2dfff;}.c,.d,.e,.f{stroke-miterlimit:10;}.c,.e,.f{stroke-width:3px;}.d{fill:none;stroke-linecap:round;stroke-width:7px;}.d,.e,.f{stroke:#ff8dd1;}.g{fill:#fff;}.e{fill:#ffc3e7;}.f{fill:#ff8dd1;}.h{fill:#736357;}.i{fill:#998675;}</style></defs><path class="e" d="M137.53,24.73c-3.66.48-52.37,7.8-74.19,53.31-19.28,40.2-2.12,77.96.2,82.86,0,0,44.99,78.4,127.99,36.29,0,0,70.25-23.06,34.63-124.33-4.1-7.14-10.12-15.58-18.94-23.44-26.5-23.64-58.85-24.79-69.69-24.69Z"/><path class="c" d="M148.03,178.72s60.71,4.23,86-54l-3.5-26.5c-25.5,85.5-112,61-112,61l29.5,19.5Z"/><path class="f" d="M194.03,196.8c-10.69,8.16-81.65,13.27-110.81-44.9-29.16-58.17,9.72-108.17,9.72-108.17l15.92-9s-44.87,65.61,0,116.44c44.87,50.83,100.17,35.34,100.17,35.34l-15,10.3Z"/><path class="d" d="M126.03,167.73s31.53-115.61,116.27-130.3c0,0,47.73-3.7,22.73,67.3s-22,101-22,101c0,0,0,37,48,39"/><path class="i" d="M94.03,62.73S49.03,7.73,58.03,9.73c0,0,2-2,5,1s6-4,5-5-5-11-15-2,0,18.93,0,18.93l37,56.07,4-16Z"/><path class="i" d="M57.03,96.73l-44.22-4.28s2.95-3.49,0-6.08-9.82,0-9.82,0c0,0-7.88,16.67,1.96,20.52,9.83,3.85,7.87-6.74,7.87-6.74l42.31,7.58,1.91-11Z"/><path class="i" d="M228.03,117.73s36,2,36,4c0,0,7,4,6,6s-5,4-7,4-39-5-39-5l4-9Z"/><path class="i" d="M156.03,181.73s24.8,42.7,26,32c1.22-10.94-13.52-27.32-11-28l-15-4Z"/><path class="h" d="M1.9,95.42c-.29,1.89-.52,3.87.42,5.63.99,1.86,3.13,2.71,5.15,2.33.77-.15,1.28-1.12,1.05-1.85-.27-.83-1.02-1.2-1.85-1.05-.32.06.37-.01.04,0-.07,0-.15,0-.22,0s-.15,0-.22,0c-.04,0-.09,0-.13-.01-.12-.01-.06,0,.18.02-.09-.06-.32-.07-.43-.11-.06-.02-.28-.14-.07-.02s-.01,0-.07-.03c-.15-.07-.28-.17-.42-.25-.15-.1.25.22.06.04-.07-.06-.13-.12-.19-.18-.05-.05-.1-.11-.15-.17-.12-.13.18.27.04.04-.09-.15-.17-.3-.25-.45s.12.35.03.06c-.02-.07-.05-.15-.07-.22-.05-.16-.08-.33-.12-.5-.05-.27.02.26,0,.07,0-.08-.02-.16-.02-.24-.01-.18-.02-.35-.02-.53,0-.34.02-.69.06-1.03,0-.08.02-.16.03-.24.03-.23.01-.09,0,.06.03-.19.06-.38.09-.58.06-.41.07-.78-.15-1.16-.18-.31-.54-.61-.9-.69-.72-.16-1.72.22-1.85,1.05h0Z"/><path class="h" d="M163.89,192.29c3.01,3.27,5.68,6.82,7.99,10.62.42.69,1.34.95,2.05.54s.96-1.36.54-2.05c-2.45-4-5.29-7.77-8.46-11.22-.55-.6-1.57-.56-2.12,0-.59.59-.55,1.52,0,2.12h0Z"/><path class="h" d="M244.37,127.72c.89-.11,1.79-.11,2.68.01l-.4-.05c.69.1,1.36.26,2.02.5.74.26,1.67-.3,1.85-1.05.19-.84-.25-1.56-1.05-1.85-1.62-.57-3.4-.78-5.1-.56-.41.05-.75.13-1.06.44-.26.26-.46.69-.44,1.06s.14.79.44,1.06c.27.25.68.49,1.06.44h0Z"/><path class="h" d="M55.12,16.5c-1.18-1.46-1.92-3.39-2.04-5.21-.06-.95-.07-1.91.31-2.79.32-.73.87-1.1,1.54-1.04.81.07,1.5-.74,1.5-1.5,0-.87-.69-1.43-1.5-1.5-1.55-.14-3.02.78-3.86,2.05s-1.03,2.77-1.02,4.21c.03,2.91,1.12,5.65,2.94,7.9.51.63,1.59.53,2.12,0,.62-.62.51-1.49,0-2.12h0Z"/><path class="g" d="M96.81,83.14c-1.73,8.81-1.69,17.9.16,26.68s5.79,16.84,10.1,24.64c2.17,3.94,4.17,8.37,7.87,11.11.89.66,2.35-.22,2.26-1.3-.34-4.1-2.57-7.47-4.42-11.03-1.94-3.73-3.65-7.58-5.12-11.52-2.97-7.92-5.08-16.16-6.45-24.5-.79-4.8-1.31-9.64-1.61-14.49-.12-1.95-2.82-1.91-3,0-1.11,11.52-.23,23.19,2.6,34.41.35,1.38,2.6,1.48,2.89,0,.75-3.87.81-7.74.2-11.63-.27-1.72-2.9-1.23-2.95.4-.14,5.01.8,9.92,2.76,14.53.62,1.46,2.76.6,2.8-.76.16-5.95-1.36-11.93-4.57-16.96-.85-1.33-2.64-.68-2.8.76-.37,3.39.84,6.59,2.07,9.68s2.57,6.32,3.91,9.46c2.69,6.3,5.54,12.53,8.55,18.69l2.36-1.82c-5.46-6.51-9.22-14.28-11.35-22.48-.49-1.87-3.38-1.08-2.89.8,2.27,8.72,6.33,16.89,12.12,23.8,1.16,1.38,3.06-.38,2.36-1.82-2.86-5.87-5.59-11.81-8.17-17.81-1.28-2.97-2.51-5.95-3.71-8.95s-2.6-6.18-2.23-9.55l-2.8.76c2.95,4.61,4.31,9.99,4.16,15.44l2.8-.76c-1.74-4.11-2.47-8.57-2.35-13.02l-2.95.4c.52,3.33.45,6.73-.2,10.03h2.89c-2.77-10.97-3.58-22.35-2.49-33.61h-3c1.06,16.83,4.74,33.62,12.03,48.88.97,2.03,2.02,4.02,3.1,6,1.14,2.09,2.27,4.24,2.47,6.66l2.26-1.3c-3.03-2.23-4.69-6.23-6.47-9.44-1.99-3.59-3.93-7.22-5.62-10.96-3.47-7.69-5.53-15.9-5.81-24.35-.16-4.79.21-9.58,1.14-14.29.37-1.89-2.52-2.69-2.89-.8h0Z"/><path class="g" d="M205.1,180.74c6.68-6.11,13.28-12.58,16.45-21.27l-2.74.36c.43.96-.34,2.21-.83,2.99-.63,1-1.4,1.91-2.14,2.83-1.56,1.95-3.2,3.84-4.98,5.6-3.3,3.26-7.16,6.05-11.8,6.91-1.54.29-1.3,2.47,0,2.89,2.5.8,5.18,1.45,7.69.32,1.18-.53,2.18-1.4,3.17-2.22s1.98-1.65,2.92-2.54c3.92-3.69,6.15-8.41,8.26-13.27.32-.75.22-1.6-.54-2.05-.63-.38-1.73-.2-2.05.54-1.84,4.23-3.71,8.56-7,11.89-1.54,1.56-3.27,3.15-5.09,4.39-2.1,1.44-4.33.77-6.57.05v2.89c5.47-1.01,10.07-4.51,13.85-8.42,2.02-2.09,3.87-4.34,5.65-6.64s3.31-4.85,2.03-7.67c-.58-1.29-2.35-.72-2.74.36-2.98,8.16-9.43,14.22-15.68,19.95-1.43,1.31.7,3.42,2.12,2.12h0Z"/></svg>