<?xml version="1.0" encoding="UTF-8"?><svg id="c" xmlns="http://www.w3.org/2000/svg" width="228.75" height="198.65" viewBox="0 0 228.75 198.65"><defs><style>.d{fill:none;}.d,.e{stroke:#8cc63f;stroke-miterlimit:10;stroke-width:3px;}.e{fill:#b5d0ae;}</style></defs><path class="e" d="M14.16,50.22s-42,38,27,91c0,0,75,87,127,44s-8-81-8-81c0,0-51.39-60.49-98.55-69.85-17.3-3.43-34.03.01-47.45,15.85Z"/><path class="e" d="M64.66,34.72s53.17,116.01,40.09,154.5"/><path class="e" d="M88.95,45.39s48.76,113.87,34.24,150.45"/><path class="e" d="M104.95,54.27s48.97,108.69,34.51,143.55"/><path class="e" d="M123.16,67.94s49.54,93.97,35.28,123.95"/><path class="e" d="M159.52,162.9s17.04,1.12,19.59,11.47"/><path class="e" d="M155.49,147.65s26.67,1.52,30.67,15.57"/><path class="e" d="M149.22,129.75s34.73,1.51,39.93,15.47"/><path class="e" d="M145.98,114.84s31.47,1.11,36.18,11.37"/><path class="e" d="M139.03,100.6s21.85.65,25.13,6.62"/><path class="e" d="M95.43,115.39s-41.77.33-54.27,25.83"/><path class="e" d="M90.16,100.22s-46.18.41-60,32"/><path class="e" d="M85.16,84.22s-53.42,6.25-66.21,37.2"/><path class="e" d="M78.16,68.22s-56.15,6.56-69.68,38.27"/><path class="e" d="M72.79,52.37S16.65,58.93,3.11,90.64"/><path class="e" d="M67.16,39.22s-50.29,5.8-63.05,28.42"/><line class="e" x1="76.74" y1="117.81" x2="49.92" y2="150.47"/><line class="e" x1="95.41" y1="115.89" x2="59.16" y2="159.22"/><line class="e" x1="100.16" y1="131.22" x2="70.88" y2="168.88"/><line class="e" x1="104.16" y1="150.22" x2="83.36" y2="178.06"/><line class="e" x1="107.16" y1="170.22" x2="95.36" y2="185.06"/><path class="d" d="M90.24,48.64S66.3,6.87,100.42,2.05s34.21,23.3,34.21,23.3c0,0,5.41,18.18,19.34,14.61,13.93-3.57,25.27,30.17,25.27,30.17,0,0,1.92,28.94,19.01,28.67,17.09-.27,2.49,35.91,30.45,34.8"/></svg>