<?xml version="1.0" encoding="UTF-8"?><svg id="c" xmlns="http://www.w3.org/2000/svg" width="142" height="134.14" viewBox="0 0 142 134.14"><defs><style>.d{fill:#fff4a2;stroke:#fbb03b;stroke-miterlimit:10;stroke-width:3px;}</style></defs><path class="d" d="M67.13,1.51S-26.87,10.51,10.13,94.51c0,0,34,73,116,17,0,0,58-96-59-110Z"/><path class="d" d="M15.63,104.01S20.2,13.02,107.13,12.01"/><path class="d" d="M27.87,116.43S35.79,16.75,119.32,18.59"/><path class="d" d="M41.18,125.8s7.71-96.56,89.34-94.76"/><path class="d" d="M115.56,31.88s23.81,18.66,24.19,40.65"/><path class="d" d="M101.15,35.21s29.01,31.13,29.47,67.8"/><path class="d" d="M85.6,44.21s29.01,34.34,29.47,74.8"/><path class="d" d="M70.62,53.79s29.01,33.16,29.47,72.22"/><path class="d" d="M60.64,66.89s27.12,29.94,25.42,63.01"/><path class="d" d="M50.25,84.65s25.44,24.39,22.13,47.75"/><path class="d" d="M46.1,102.6s16.62,15.57,14.52,30.41"/><path class="d" d="M4,77.13s8.72-8.6,16.93-4.61"/><path class="d" d="M1.83,63.38s13.81-8.15,26.8-4.37"/><path class="d" d="M2.35,47.04s18.17-8.15,35.28-4.37"/><path class="d" d="M12.4,28.34s18.56-2.86,32.7,5.4"/><path class="d" d="M32.28,11.93s15.57,3.8,22.25,15.57"/><path class="d" d="M52.01,4.77s12.76,4.31,15.3,14.78"/><path class="d" d="M70.82,2.02s9.81,3.95,10.94,12.23"/></svg>