<?xml version="1.0" encoding="UTF-8"?><svg id="c" xmlns="http://www.w3.org/2000/svg" width="219.54" height="232.78" viewBox="0 0 219.54 232.78"><defs><style>.d{fill:#fff4a2;}.d,.e{stroke:#fbb03b;stroke-miterlimit:10;stroke-width:3px;}.e{fill:none;}</style></defs><path class="d" d="M14.16,84.34s-42,38,27,91c0,0,75,87,127,44s-8-81-8-81c0,0-51.39-60.49-98.55-69.85-17.3-3.43-34.03.01-47.45,15.85Z"/><path class="d" d="M64.66,68.84s53.17,116.01,40.09,154.5"/><path class="d" d="M88.95,79.51s43.54,127.02,34.24,150.45"/><path class="d" d="M104.95,88.4s48.97,108.69,34.51,143.55"/><path class="d" d="M123.16,102.07s49.54,93.97,35.28,123.95"/><path class="d" d="M159.52,197.02s17.04,1.12,19.59,11.47"/><path class="d" d="M155.49,181.77s26.67,1.52,30.67,15.57"/><path class="d" d="M149.22,163.87s34.73,1.51,39.93,15.47"/><path class="d" d="M145.98,148.97s31.47,1.11,36.18,11.37"/><path class="d" d="M139.03,134.72s21.85.65,25.13,6.62"/><path class="d" d="M95.43,149.51s-41.77.33-54.27,25.83"/><path class="d" d="M90.16,134.34s-46.18.41-60,32"/><path class="d" d="M85.16,118.34s-53.42,6.25-66.21,37.2"/><path class="d" d="M78.16,102.34s-56.15,6.56-69.68,38.27"/><path class="d" d="M72.79,86.5S16.65,93.05,3.11,124.76"/><path class="d" d="M67.16,73.34s-50.29,5.8-63.05,28.42"/><line class="d" x1="76.74" y1="151.93" x2="49.92" y2="184.59"/><line class="d" x1="95.41" y1="150.02" x2="59.16" y2="193.34"/><line class="d" x1="100.16" y1="165.34" x2="70.88" y2="203.01"/><line class="d" x1="104.16" y1="184.34" x2="83.36" y2="212.18"/><line class="d" x1="107.16" y1="204.34" x2="95.36" y2="219.18"/><path class="e" d="M123.95,102.61s82.15-22.39,73.3-65.86S148.39,2.27,148.39,2.27c0,0-75.97,47.94,21.17,101.86,0,0,46.78,27.06,32.82,40-13.97,12.94,10.32,38.05,10.32,38.05,0,0,11.2,15.7,1.2,20.24"/></svg>