<?xml version="1.0" encoding="UTF-8"?><svg xmlns="http://www.w3.org/2000/svg" width="1280.87" height="258.73" viewBox="0 0 1280.87 258.73"><defs><style>.c{stroke:#a2dfff;}.c,.d,.e,.f{stroke-miterlimit:10;}.c,.e,.f{stroke-width:3px;}.c,.g{fill:#a2dfff;}.h,.f{fill:#ff8dd1;}.i,.e{fill:#ffc3e7;}.d{fill:none;stroke-linecap:round;stroke-width:7px;}.d,.e,.f{stroke:#ff8dd1;}.j{fill:#fff;}.k{fill:#736357;}.l{fill:#998675;}</style></defs><g id="a"><path class="g" d="M1195.68,497.26c121.16-170.24,220.16-380.99,417.6-201.29,53.7,48.87,202.34-195.99,391.77,15.89,52.33,58.53,250.78-180.38,370.24-68.86,124.85,116.54,294.26-37.37,439.13-47.67,189.84-13.5,193.28,162.52,384.81,156.05,179.38-6.06,249.32-89.84,399.38-70.93,118.17,14.89,232.69,100.47,279.19,227.42,48.39,132.12-71.64,165.05-63.8,387.34,7.4,209.62,104.32,154.18,80.77,321.56-22.27,158.29-106.23,177-98.72,307.38,7.24,125.85,176.53,165.39,68.83,345.09-48.94,81.66-20.74,328.27-111.93,407.88-113.37,98.97-148.81-145.46-369.74-43.64-106.26,48.97-121.89,160.43-206.42,165.51-125.17,7.52-164.61-120.19-323.09-141.87-85.34-11.67-82.72,24.16-233.34,42.56-194.97,23.82-267.83-104.81-444.25-85.12-194.55,21.71-152.16,166.78-278.22,146.59-147.82-23.67-163.52-129.65-300.66-132.41-122.28-2.46-154.35,80.91-255.78,56.75-76.75-18.28-159.28-90.06-179.5-179.7-33.85-150.09,133.99-230.38,103.21-392.5-20.77-109.37-108.45-132.26-94.24-212.8,16.57-93.91,74.52-87.63,85.26-174.97,10.05-81.74-86.77-148.62-98.72-274.27-5.95-62.5,53.85-193.88,53.85-193.88,24.19-156.26-69.78-284.02-15.64-360.1Z"/></g><g id="b"><path class="h" d="M306.3,112.43c5.34,1.82,10.68,3.55,16.03,5.19v51.63c-5.34-1.65-10.68-3.39-16.03-5.22v-51.6Z"/><path class="h" d="M334.02,121.06c7.92,2.24,15.84,4.29,23.76,6.16,4.68,1.11,8.47,2.57,11.35,4.46,2.88,1.89,5.27,4.2,7.15,6.96,1.88,2.76,3.25,5.79,4.09,9.11.85,3.32,1.27,6.74,1.27,10.27,0,5.53-.63,9.7-1.89,12.5-1.26,2.8-3.01,5.01-5.24,6.6-2.24,1.6-4.64,2.46-7.2,2.57-3.51.17-6.68-.1-9.53-.77-7.92-1.89-15.84-3.95-23.76-6.21v-51.66ZM350.01,137.03v28.24c1.31.33,2.61.66,3.92.98,3.34.82,5.72,1,7.13.59,1.41-.41,2.52-1.46,3.32-3.12.8-1.67,1.2-4.57,1.2-8.71,0-5.48-.9-9.43-2.68-11.86-1.79-2.43-4.75-4.12-8.9-5.13-1.33-.32-2.66-.65-3.99-.99Z"/><path class="h" d="M418.74,181.51c-6.05-.78-12.1-1.66-18.15-2.63-.84,2.72-1.68,5.43-2.52,8.14-5.44-.9-10.88-1.87-16.33-2.93,6.48-16,12.97-32.12,19.45-48.37,5.81.91,11.63,1.74,17.44,2.49,6.48,18.11,12.96,36.13,19.45,54.07-5.58-.55-11.16-1.18-16.75-1.88-.86-2.96-1.73-5.92-2.59-8.89ZM415.43,169.87c-1.9-6.47-3.81-12.94-5.71-19.43-1.88,5.94-3.77,11.87-5.65,17.79,3.79.58,7.58,1.13,11.36,1.64Z"/><path class="h" d="M440.37,175.34c5.07.16,10.14.27,15.21.31.33,2.5,1,4.44,2.01,5.81,1.65,2.22,4,3.42,7.06,3.61,2.28.13,4.04-.31,5.28-1.32,1.24-1.01,1.85-2.23,1.85-3.65,0-1.35-.59-2.58-1.76-3.7-1.18-1.12-3.91-2.27-8.19-3.48-7.01-2.02-12.01-4.54-15-7.41-3.01-2.88-4.52-6.36-4.52-10.42,0-2.67.77-5.11,2.31-7.35,1.54-2.24,3.86-3.9,6.95-5.03,3.09-1.12,7.34-1.5,12.73-1.18,6.61.38,11.65,1.82,15.13,4.42,3.47,2.6,5.54,6.58,6.2,11.99-5.02.15-10.05.25-15.07.3-.4-2.36-1.24-4.1-2.52-5.23-1.28-1.13-3.05-1.76-5.31-1.9-1.86-.11-3.26.19-4.2.92-.94.73-1.41,1.66-1.41,2.79,0,.83.39,1.6,1.16,2.31.75.74,2.54,1.49,5.37,2.25,6.99,1.93,12,3.66,15.02,5.32,3.02,1.66,5.22,3.65,6.6,5.99,1.38,2.33,2.07,4.92,2.07,7.76,0,3.33-.92,6.38-2.75,9.14-1.84,2.76-4.4,4.8-7.7,6.12-3.3,1.31-7.45,1.84-12.46,1.54-8.8-.53-14.9-2.75-18.29-6.44-3.39-3.69-5.31-8.2-5.75-13.48Z"/><path class="h" d="M516.69,178.42c5.07-.37,10.14-.79,15.21-1.24.33,2.48,1,4.36,2.01,5.63,1.65,2.06,4,3.04,7.06,2.93,2.28-.09,4.04-.7,5.28-1.83,1.24-1.13,1.85-2.41,1.85-3.83,0-1.35-.59-2.53-1.76-3.55-1.18-1.02-3.91-1.9-8.19-2.7-7.01-1.35-12.01-3.36-15-5.93-3.01-2.58-4.52-5.91-4.52-9.98,0-2.68.77-5.21,2.31-7.62,1.54-2.4,3.86-4.32,6.95-5.75,3.09-1.44,7.34-2.24,12.73-2.45,6.61-.26,11.65.72,15.13,3.01,3.47,2.29,5.54,6.1,6.2,11.47-5.02.6-10.05,1.16-15.07,1.68-.4-2.33-1.24-4-2.52-5.01-1.28-1.01-3.05-1.47-5.31-1.39-1.86.07-3.26.51-4.2,1.33-.94.82-1.41,1.8-1.41,2.94,0,.83.39,1.56,1.16,2.2.75.66,2.54,1.25,5.37,1.74,6.99,1.25,12,2.53,15.02,3.93,3.02,1.39,5.22,3.19,6.6,5.41,1.38,2.22,2.07,4.75,2.07,7.6,0,3.34-.92,6.49-2.75,9.42-1.84,2.93-4.4,5.21-7.7,6.84-3.3,1.62-7.45,2.54-12.46,2.73-8.8.32-14.9-1.28-18.29-4.63-3.39-3.36-5.31-7.67-5.75-12.92Z"/><path class="h" d="M568.05,141.53c16.2-1.09,32.41-2.55,48.61-4.32v12.91c-5.44.59-10.87,1.14-16.31,1.66v39.34c-5.33.5-10.66.96-15.99,1.39v-39.32c-5.44.44-10.87.85-16.31,1.21,0-4.29,0-8.59,0-12.88Z"/><path class="h" d="M624.11,188.67c0-17.43,0-34.86,0-52.3,8.88-1.02,17.77-2.12,26.65-3.29,4.94-.65,8.72-.74,11.33-.25,2.61.5,4.72,1.79,6.32,3.89,1.6,2.1,2.4,4.81,2.4,8.15,0,2.91-.61,5.5-1.84,7.78-1.22,2.28-2.91,4.23-5.05,5.83-1.37,1.02-3.24,1.97-5.62,2.84,1.9.39,3.29.84,4.16,1.36.59.35,1.44,1.15,2.56,2.4,1.12,1.25,1.86,2.23,2.24,2.94,2.58,4.7,5.16,9.4,7.74,14.09-6.02.86-12.05,1.69-18.07,2.5-2.85-4.95-5.7-9.91-8.55-14.88-1.08-1.93-2.05-3.15-2.89-3.66-1.15-.66-2.46-.9-3.92-.72-.47.06-.94.12-1.41.18v21.24c-5.35.66-10.71,1.29-16.06,1.89ZM640.17,155.66c2.25-.28,4.49-.56,6.74-.85.73-.09,2.14-.51,4.24-1.26,1.06-.35,1.92-1.02,2.59-1.99.67-.97,1.01-2.03,1.01-3.17,0-1.69-.53-2.92-1.59-3.68-1.06-.76-3.05-.95-5.97-.58-2.34.3-4.68.6-7.02.89v10.64Z"/><path class="h" d="M680.77,128.88c5.34-.79,10.68-1.6,16.03-2.43v52.46c-5.34.81-10.68,1.61-16.03,2.39v-52.42Z"/><path class="h" d="M708.33,124.64c5.33-.85,10.66-1.71,15.99-2.58v19.85c5.58-7.53,11.17-15.07,16.75-22.62,7.09-1.19,14.18-2.39,21.27-3.6-6.29,7.69-12.59,15.38-18.88,23.04,6.58,9.81,13.15,19.61,19.73,29.42-6.56,1.11-13.13,2.21-19.69,3.3-3.64-6.6-7.27-13.2-10.91-19.81-2.75,3.38-5.51,6.76-8.26,10.13v12.82c-5.33.86-10.66,1.71-15.99,2.55v-52.48Z"/><path class="h" d="M768.56,114.62c5.33-.91,10.66-1.83,15.99-2.75v19.9c5.58-7.59,11.17-15.18,16.75-22.77,7.09-1.21,14.18-2.42,21.27-3.62-6.29,7.7-12.59,15.4-18.88,23.1,6.58,9.81,13.15,19.64,19.73,29.49-6.56,1.09-13.13,2.19-19.69,3.3-3.64-6.61-7.27-13.21-10.91-19.81-2.75,3.41-5.51,6.81-8.26,10.21v12.85c-5.33.9-10.66,1.81-15.99,2.71,0-17.54,0-35.08,0-52.61Z"/><path class="h" d="M828.67,104.35c14.28-2.39,28.57-4.73,42.85-6.94v11.28c-8.94,1.38-17.89,2.81-26.83,4.27v8.39c8.3-1.35,16.59-2.68,24.89-3.96v10.78c-8.3,1.28-16.59,2.6-24.89,3.95v10.41c9.2-1.49,18.4-2.95,27.6-4.35v11.97c-14.54,2.22-29.09,4.56-43.63,6.96v-52.75Z"/><path class="h" d="M938.7,88.11c5.32-.63,10.64-1.23,15.96-1.8v31.59c0,3.13-.48,6.14-1.43,9.02-.95,2.88-2.45,5.48-4.48,7.78-2.04,2.31-4.17,4.01-6.41,5.1-3.11,1.53-6.84,2.56-11.19,3.09-2.52.31-5.27.46-8.24.48-2.98.02-5.47-.38-7.47-1.18-2-.81-3.83-2.09-5.49-3.83-1.66-1.75-2.79-3.63-3.41-5.63-.99-3.23-1.48-6.14-1.48-8.74v-31.53c5.32-.74,10.64-1.46,15.96-2.15v32.3c0,2.89.78,5.04,2.35,6.47,1.56,1.43,3.74,1.96,6.51,1.62,2.75-.34,4.91-1.4,6.48-3.18,1.57-1.79,2.35-4.15,2.35-7.08v-32.32Z"/><path class="h" d="M965.35,85.21c4.98-.49,9.95-.95,14.93-1.38,6.5,9.23,12.99,18.53,19.49,27.89v-29.39c5.02-.34,10.05-.65,15.07-.91v53.16c-5.02.25-10.05.55-15.07.88-6.46-9.3-12.92-18.53-19.38-27.7v29.15c-5.01.42-10.03.87-15.04,1.35v-53.05Z"/><path class="h" d="M1026.1,80.9c5.34-.22,10.68-.39,16.03-.51v53.22c-5.34.11-10.68.27-16.03.48v-53.18Z"/><path class="h" d="M1048.52,80.26c5.57-.09,11.14-.12,16.72-.09,3.88,12.8,7.76,25.63,11.65,38.5,3.83-12.7,7.67-25.38,11.5-38.04,5.41.19,10.82.44,16.23.76-6.4,17.41-12.81,34.9-19.21,52.46-5.78-.19-11.55-.32-17.33-.38-6.51-17.83-13.03-35.56-19.54-53.2Z"/><path class="h" d="M1109.8,81.71c14.28.94,28.57,2.32,42.85,4.21v11.41c-8.94-1.19-17.89-2.17-26.83-2.98v8.49c8.3.75,16.59,1.66,24.89,2.73v10.9c-8.3-1.08-16.59-1.99-24.89-2.74v10.53c9.2.84,18.4,1.87,27.6,3.12v12.11c-14.54-1.97-29.09-3.42-43.63-4.41v-53.37Z"/><path class="h" d="M1162.26,140.75v-53.48c8.88,1.32,17.77,2.84,26.65,4.57,4.94.96,8.72,2.2,11.33,3.64,2.61,1.44,4.72,3.54,6.32,6.28,1.6,2.74,2.4,5.82,2.4,9.23,0,2.97-.61,5.39-1.84,7.27-1.22,1.88-2.91,3.24-5.05,4.11-1.37.55-3.24.85-5.62.91,1.9,1.06,3.29,2.02,4.16,2.87.59.57,1.44,1.69,2.56,3.38,1.12,1.69,1.86,2.97,2.24,3.83,2.58,5.76,5.16,11.54,7.74,17.35-6.02-1.46-12.05-2.82-18.07-4.07-2.85-6.05-5.7-12.07-8.55-18.08-1.08-2.33-2.05-3.88-2.89-4.68-1.15-1.04-2.46-1.7-3.92-1.96-.47-.08-.94-.17-1.41-.25v21.72c-5.35-.95-10.71-1.83-16.06-2.64ZM1178.32,111.55c2.25.4,4.49.81,6.74,1.23.73.14,2.14.16,4.24.09,1.06-.01,1.92-.4,2.59-1.16.67-.77,1.01-1.73,1.01-2.9,0-1.73-.53-3.16-1.59-4.3-1.06-1.14-3.05-2-5.97-2.55-2.34-.44-4.68-.87-7.02-1.28v10.88Z"/><path class="h" d="M1215.49,133.54c5.07.92,10.14,1.91,15.21,2.99.33,2.65,1,4.79,2.01,6.41,1.65,2.63,4,4.39,7.06,5.29,2.28.67,4.04.65,5.28-.08,1.24-.73,1.85-1.83,1.85-3.29,0-1.39-.59-2.82-1.76-4.28-1.18-1.46-3.91-3.33-8.19-5.54-7.01-3.66-12.01-7.13-15-10.61-3.01-3.48-4.52-7.3-4.52-11.5,0-2.75.77-5.17,2.31-7.23,1.54-2.06,3.86-3.39,6.95-3.97,3.09-.58,7.34-.12,12.73,1.45,6.61,1.93,11.65,4.81,15.13,8.49,3.47,3.68,5.54,8.44,6.2,14.23-5.02-1.39-10.05-2.7-15.07-3.93-.4-2.54-1.24-4.55-2.52-6.04-1.28-1.48-3.05-2.56-5.31-3.21-1.86-.54-3.26-.52-4.2.03-.94.55-1.41,1.42-1.41,2.59,0,.85.39,1.73,1.16,2.63.75.92,2.54,2.08,5.37,3.51,6.99,3.6,12,6.78,15.02,9.36,3.02,2.58,5.22,5.3,6.6,8.13,1.38,2.83,2.07,5.72,2.07,8.65,0,3.44-.92,6.3-2.75,8.59-1.84,2.29-4.4,3.64-7.7,4.08-3.29.45-7.45-.1-12.46-1.58-8.8-2.59-14.9-5.93-18.29-10.32-3.39-4.38-5.31-9.31-5.75-14.83Z"/><path class="i" d="M301.25,109.07c5.34,1.82,10.68,3.55,16.03,5.19v51.63c-5.34-1.65-10.68-3.39-16.03-5.22v-51.6Z"/><path class="i" d="M328.96,117.7c7.92,2.24,15.84,4.29,23.76,6.16,4.68,1.11,8.47,2.57,11.35,4.46,2.88,1.89,5.27,4.2,7.15,6.96,1.88,2.76,3.25,5.79,4.09,9.11.85,3.32,1.27,6.74,1.27,10.27,0,5.53-.63,9.7-1.89,12.5-1.26,2.8-3.01,5.01-5.24,6.6-2.24,1.6-4.64,2.46-7.2,2.57-3.51.17-6.68-.1-9.53-.77-7.92-1.89-15.84-3.95-23.76-6.21v-51.66ZM344.95,133.68v28.24c1.31.33,2.61.66,3.92.98,3.34.82,5.72,1,7.13.59,1.41-.41,2.52-1.46,3.32-3.12.8-1.67,1.2-4.57,1.2-8.71,0-5.48-.9-9.43-2.68-11.86-1.79-2.43-4.75-4.12-8.9-5.13-1.33-.32-2.66-.65-3.99-.99Z"/><path class="i" d="M413.69,178.16c-6.05-.78-12.1-1.66-18.15-2.63-.84,2.72-1.68,5.43-2.52,8.14-5.44-.9-10.88-1.87-16.33-2.93,6.48-16,12.97-32.12,19.45-48.37,5.81.91,11.63,1.74,17.44,2.49,6.48,18.11,12.96,36.13,19.45,54.07-5.58-.55-11.16-1.18-16.75-1.88-.86-2.96-1.73-5.92-2.59-8.89ZM410.38,166.51c-1.9-6.47-3.81-12.94-5.71-19.43-1.88,5.94-3.77,11.87-5.65,17.79,3.79.58,7.58,1.13,11.36,1.64Z"/><path class="i" d="M435.32,171.99c5.07.16,10.14.27,15.21.31.33,2.5,1,4.44,2.01,5.81,1.65,2.22,4,3.42,7.06,3.61,2.28.13,4.04-.31,5.28-1.32,1.24-1.01,1.85-2.23,1.85-3.65,0-1.35-.59-2.58-1.76-3.7-1.18-1.12-3.91-2.27-8.19-3.48-7.01-2.02-12.01-4.54-15-7.41-3.01-2.88-4.52-6.36-4.52-10.42,0-2.67.77-5.11,2.31-7.35,1.54-2.24,3.86-3.9,6.95-5.03,3.09-1.12,7.34-1.5,12.73-1.18,6.61.38,11.65,1.82,15.13,4.42,3.47,2.6,5.54,6.58,6.2,11.99-5.02.15-10.05.25-15.07.3-.4-2.36-1.24-4.1-2.52-5.23-1.28-1.13-3.05-1.76-5.31-1.9-1.86-.11-3.26.19-4.2.92-.94.73-1.41,1.66-1.41,2.79,0,.83.39,1.6,1.16,2.31.75.74,2.54,1.49,5.37,2.25,6.99,1.93,12,3.66,15.02,5.32,3.02,1.66,5.22,3.65,6.6,5.99,1.38,2.33,2.07,4.92,2.07,7.76,0,3.33-.92,6.38-2.75,9.14-1.84,2.76-4.4,4.8-7.7,6.12-3.3,1.31-7.45,1.84-12.46,1.54-8.8-.53-14.9-2.75-18.29-6.44-3.39-3.69-5.31-8.2-5.75-13.48Z"/><path class="i" d="M511.64,175.07c5.07-.37,10.14-.79,15.21-1.24.33,2.48,1,4.36,2.01,5.63,1.65,2.06,4,3.04,7.06,2.93,2.28-.09,4.04-.7,5.28-1.83,1.24-1.13,1.85-2.41,1.85-3.83,0-1.35-.59-2.53-1.76-3.55-1.18-1.02-3.91-1.9-8.19-2.7-7.01-1.35-12.01-3.36-15-5.93-3.01-2.58-4.52-5.91-4.52-9.98,0-2.68.77-5.21,2.31-7.62,1.54-2.4,3.86-4.32,6.95-5.75,3.09-1.44,7.34-2.24,12.73-2.45,6.61-.26,11.65.72,15.13,3.01,3.47,2.29,5.54,6.1,6.2,11.47-5.02.6-10.05,1.16-15.07,1.68-.4-2.33-1.24-4-2.52-5.01-1.28-1.01-3.05-1.47-5.31-1.39-1.86.07-3.26.51-4.2,1.33-.94.82-1.41,1.8-1.41,2.94,0,.83.39,1.56,1.16,2.2.75.66,2.54,1.25,5.37,1.74,6.99,1.25,12,2.53,15.02,3.93,3.02,1.39,5.22,3.19,6.6,5.41,1.38,2.22,2.07,4.75,2.07,7.6,0,3.34-.92,6.49-2.75,9.42-1.84,2.93-4.4,5.21-7.7,6.84-3.3,1.62-7.45,2.54-12.46,2.73-8.8.32-14.9-1.28-18.29-4.63-3.39-3.36-5.31-7.67-5.75-12.92Z"/><path class="i" d="M563,138.17c16.2-1.09,32.41-2.55,48.61-4.32v12.91c-5.44.59-10.87,1.14-16.31,1.66v39.34c-5.33.5-10.66.96-15.99,1.39v-39.32c-5.44.44-10.87.85-16.31,1.21,0-4.29,0-8.59,0-12.88Z"/><path class="i" d="M619.06,185.32c0-17.43,0-34.86,0-52.3,8.88-1.02,17.77-2.12,26.65-3.29,4.94-.65,8.72-.74,11.33-.25,2.61.5,4.72,1.79,6.32,3.89,1.6,2.1,2.4,4.81,2.4,8.15,0,2.91-.61,5.5-1.84,7.78-1.22,2.28-2.91,4.23-5.05,5.83-1.37,1.02-3.24,1.97-5.62,2.84,1.9.39,3.29.84,4.16,1.36.59.35,1.44,1.15,2.56,2.4,1.12,1.25,1.86,2.23,2.24,2.94,2.58,4.7,5.16,9.4,7.74,14.09-6.02.86-12.05,1.69-18.07,2.5-2.85-4.95-5.7-9.91-8.55-14.88-1.08-1.93-2.05-3.15-2.89-3.66-1.15-.66-2.46-.9-3.92-.72-.47.06-.94.12-1.41.18v21.24c-5.35.66-10.71,1.29-16.06,1.89ZM635.12,152.3c2.25-.28,4.49-.56,6.74-.85.73-.09,2.14-.51,4.24-1.26,1.06-.35,1.92-1.02,2.59-1.99.67-.97,1.01-2.03,1.01-3.17,0-1.69-.53-2.92-1.59-3.68-1.06-.76-3.05-.95-5.97-.58-2.34.3-4.68.6-7.02.89v10.64Z"/><path class="i" d="M675.71,125.53c5.34-.79,10.68-1.6,16.03-2.43v52.46c-5.34.81-10.68,1.61-16.03,2.39v-52.42Z"/><path class="i" d="M703.28,121.29c5.33-.85,10.66-1.71,15.99-2.58v19.85c5.58-7.53,11.17-15.07,16.75-22.62,7.09-1.19,14.18-2.39,21.27-3.6-6.29,7.69-12.59,15.38-18.88,23.04,6.58,9.81,13.15,19.61,19.73,29.42-6.56,1.11-13.13,2.21-19.69,3.3-3.64-6.6-7.27-13.2-10.91-19.81-2.75,3.38-5.51,6.76-8.26,10.13v12.82c-5.33.86-10.66,1.71-15.99,2.55v-52.48Z"/><path class="i" d="M763.51,111.26c5.33-.91,10.66-1.83,15.99-2.75v19.9c5.58-7.59,11.17-15.18,16.75-22.77,7.09-1.21,14.18-2.42,21.27-3.62-6.29,7.7-12.59,15.4-18.88,23.1,6.58,9.81,13.15,19.64,19.73,29.49-6.56,1.09-13.13,2.19-19.69,3.3-3.64-6.61-7.27-13.21-10.91-19.81-2.75,3.41-5.51,6.81-8.26,10.21v12.85c-5.33.9-10.66,1.81-15.99,2.71,0-17.54,0-35.08,0-52.61Z"/><path class="i" d="M823.62,101c14.28-2.39,28.57-4.73,42.85-6.94v11.28c-8.94,1.38-17.89,2.81-26.83,4.27v8.39c8.3-1.35,16.59-2.68,24.89-3.96v10.78c-8.3,1.28-16.59,2.6-24.89,3.95v10.41c9.2-1.49,18.4-2.95,27.6-4.35v11.97c-14.54,2.22-29.09,4.56-43.63,6.96v-52.75Z"/><path class="i" d="M933.65,84.76c5.32-.63,10.64-1.23,15.96-1.8v31.59c0,3.13-.48,6.14-1.43,9.02-.95,2.88-2.45,5.48-4.48,7.78-2.04,2.31-4.17,4.01-6.41,5.1-3.11,1.53-6.84,2.56-11.19,3.09-2.52.31-5.27.46-8.24.48-2.98.02-5.47-.38-7.47-1.18-2-.81-3.83-2.09-5.49-3.83-1.66-1.75-2.79-3.63-3.41-5.63-.99-3.23-1.48-6.14-1.48-8.74v-31.53c5.32-.74,10.64-1.46,15.96-2.15v32.3c0,2.89.78,5.04,2.35,6.47,1.56,1.43,3.74,1.96,6.51,1.62,2.75-.34,4.91-1.4,6.48-3.18,1.57-1.79,2.35-4.15,2.35-7.08v-32.32Z"/><path class="i" d="M960.3,81.86c4.98-.49,9.95-.95,14.93-1.38,6.5,9.23,12.99,18.53,19.49,27.89v-29.39c5.02-.34,10.05-.65,15.07-.91v53.16c-5.02.25-10.05.55-15.07.88-6.46-9.3-12.92-18.53-19.38-27.7v29.15c-5.01.42-10.03.87-15.04,1.35v-53.05Z"/><path class="i" d="M1021.05,77.54c5.34-.22,10.68-.39,16.03-.51v53.22c-5.34.11-10.68.27-16.03.48v-53.18Z"/><path class="i" d="M1043.47,76.91c5.57-.09,11.14-.12,16.72-.09,3.88,12.8,7.76,25.63,11.65,38.5,3.83-12.7,7.67-25.38,11.5-38.04,5.41.19,10.82.44,16.23.76-6.4,17.41-12.81,34.9-19.21,52.46-5.78-.19-11.55-.32-17.33-.38-6.51-17.83-13.03-35.56-19.54-53.2Z"/><path class="i" d="M1104.75,78.36c14.28.94,28.57,2.32,42.85,4.21v11.41c-8.94-1.19-17.89-2.17-26.83-2.98v8.49c8.3.75,16.59,1.66,24.89,2.73v10.9c-8.3-1.08-16.59-1.99-24.89-2.74v10.53c9.2.84,18.4,1.87,27.6,3.12v12.11c-14.54-1.97-29.09-3.42-43.63-4.41v-53.37Z"/><path class="i" d="M1157.2,137.39v-53.48c8.88,1.32,17.77,2.84,26.65,4.57,4.94.96,8.72,2.2,11.33,3.64,2.61,1.44,4.72,3.54,6.32,6.28,1.6,2.74,2.4,5.82,2.4,9.23,0,2.97-.61,5.39-1.84,7.27-1.22,1.88-2.91,3.24-5.05,4.11-1.37.55-3.24.85-5.62.91,1.9,1.06,3.29,2.02,4.16,2.87.59.57,1.44,1.69,2.56,3.38,1.12,1.69,1.86,2.97,2.24,3.83,2.58,5.76,5.16,11.54,7.74,17.35-6.02-1.46-12.05-2.82-18.07-4.07-2.85-6.05-5.7-12.07-8.55-18.08-1.08-2.33-2.05-3.88-2.89-4.68-1.15-1.04-2.46-1.7-3.92-1.96-.47-.08-.94-.17-1.41-.25v21.72c-5.35-.95-10.71-1.83-16.06-2.64ZM1173.27,108.2c2.25.4,4.49.81,6.74,1.23.73.14,2.14.16,4.24.09,1.06-.01,1.92-.4,2.59-1.16.67-.77,1.01-1.73,1.01-2.9,0-1.73-.53-3.16-1.59-4.3-1.06-1.14-3.05-2-5.97-2.55-2.34-.44-4.68-.87-7.02-1.28v10.88Z"/><path class="i" d="M1210.44,130.18c5.07.92,10.14,1.91,15.21,2.99.33,2.65,1,4.79,2.01,6.41,1.65,2.63,4,4.39,7.06,5.29,2.28.67,4.04.65,5.28-.08,1.24-.73,1.85-1.83,1.85-3.29,0-1.39-.59-2.82-1.76-4.28-1.18-1.46-3.91-3.33-8.19-5.54-7.01-3.66-12.01-7.13-15-10.61-3.01-3.48-4.52-7.3-4.52-11.5,0-2.75.77-5.17,2.31-7.23,1.54-2.06,3.86-3.39,6.95-3.97,3.09-.58,7.34-.12,12.73,1.45,6.61,1.93,11.65,4.81,15.13,8.49,3.47,3.68,5.54,8.44,6.2,14.23-5.02-1.39-10.05-2.7-15.07-3.93-.4-2.54-1.24-4.55-2.52-6.04-1.28-1.48-3.05-2.56-5.31-3.21-1.86-.54-3.26-.52-4.2.03-.94.55-1.41,1.42-1.41,2.59,0,.85.39,1.73,1.16,2.63.75.92,2.54,2.08,5.37,3.51,6.99,3.6,12,6.78,15.02,9.36,3.02,2.58,5.22,5.3,6.6,8.13,1.38,2.83,2.07,5.72,2.07,8.65,0,3.44-.92,6.3-2.75,8.59-1.84,2.29-4.4,3.64-7.7,4.08-3.29.45-7.45-.1-12.46-1.58-8.8-2.59-14.9-5.93-18.29-10.32-3.39-4.38-5.31-9.31-5.75-14.83Z"/><path class="e" d="M140.53,26.63c-3.68.5-52.58,7.97-74.5,54.46-19.36,41.06-2.13,79.64.2,84.65,0,0,45.17,80.09,128.51,37.07,0,0,70.54-23.56,34.77-127.01-4.11-7.29-10.16-15.91-19.01-23.94-26.61-24.15-59.09-25.32-69.97-25.22Z"/><path class="c" d="M151.07,183.94s60.95,4.33,86.35-55.16l-3.51-27.07c-25.6,87.34-112.46,62.31-112.46,62.31l29.62,19.92Z"/><path class="f" d="M197.26,202.41c-10.74,8.34-81.98,13.55-111.26-45.87-29.28-59.42,9.76-110.5,9.76-110.5l15.99-9.19s-45.05,67.03,0,118.95c45.05,51.92,100.58,36.1,100.58,36.1l-15.06,10.52Z"/><path class="d" d="M128.98,172.7s31.66-118.1,116.74-133.11c0,0,47.93-3.78,22.83,68.75-25.1,72.53-22.09,103.18-22.09,103.18,0,0,0,37.8,48.2,39.84"/><path class="l" d="M96.85,65.44S51.66,9.26,60.7,11.3c0,0,2.01-2.04,5.02,1.02s6.02-4.09,5.02-5.11-5.02-11.24-15.06-2.04,0,19.33,0,19.33l37.15,57.28,4.02-16.34Z"/><path class="l" d="M59.7,100.17l-44.4-4.37s2.96-3.57,0-6.21-9.86,0-9.86,0c0,0-7.91,17.03,1.97,20.96s7.9-6.88,7.9-6.88l42.48,7.74,1.91-11.24Z"/><path class="l" d="M231.39,121.63s36.15,2.04,36.15,4.09c0,0,7.03,4.09,6.02,6.13s-5.02,4.09-7.03,4.09-39.16-5.11-39.16-5.11l4.02-9.19Z"/><path class="l" d="M159.1,187.01s24.9,43.62,26.11,32.69c1.23-11.17-13.57-27.91-11.04-28.6l-15.06-4.09Z"/><path class="k" d="M4.35,98.85c-.29,1.91-.51,3.89.4,5.68.97,1.9,3.14,2.8,5.19,2.41.77-.15,1.28-1.12,1.05-1.85-.27-.82-1.02-1.21-1.85-1.05-.32.06.36-.01.03,0-.08,0-.15,0-.23,0s-.15,0-.23,0c-.27,0,.26.06.08.01-.17-.04-.33-.07-.49-.12-.06-.02-.32-.08-.08-.03s0-.01-.07-.04c-.07-.04-.33-.26-.39-.25.17.13.21.16.12.09-.04-.03-.07-.06-.1-.09-.06-.05-.11-.11-.16-.16-.22-.23.04.03.03.05,0,0-.13-.19-.14-.2-.09-.15-.15-.32-.25-.46.07.11.11.27.03.05-.03-.07-.05-.15-.07-.23-.04-.15-.07-.31-.1-.47-.07-.33.03.36,0,.02,0-.08-.01-.16-.02-.24-.01-.16-.01-.33-.01-.49,0-.35.02-.7.06-1.05.02-.17.04-.33.06-.5-.04.44-.01.09,0,0,.01-.1.03-.19.04-.29.06-.41.07-.78-.15-1.16-.18-.31-.54-.61-.9-.69-.72-.16-1.72.22-1.85,1.05h0Z"/><path class="k" d="M167,197.77c3.02,3.35,5.7,6.98,8.03,10.85.99,1.65,3.59.15,2.59-1.51-2.45-4.08-5.31-7.92-8.5-11.46-.54-.6-1.57-.55-2.12,0-.6.6-.54,1.52,0,2.12h0Z"/><path class="k" d="M247.81,131.81c.87-.11,1.74-.11,2.61,0l-.4-.05c.72.1,1.43.27,2.12.52.35.13.84.03,1.16-.15s.61-.54.69-.9c.19-.84-.26-1.56-1.05-1.85-1.62-.58-3.41-.79-5.12-.57-.41.05-.75.13-1.06.44-.26.26-.46.69-.44,1.06s.14.79.44,1.06c.27.25.68.49,1.06.44h0Z"/><path class="k" d="M57.78,18.24c-1.2-1.5-1.93-3.47-2.05-5.34-.06-.96-.07-1.96.31-2.85.32-.76.87-1.14,1.56-1.08.81.07,1.5-.74,1.5-1.5,0-.87-.69-1.43-1.5-1.5-1.56-.14-3.03.8-3.87,2.07s-1.04,2.82-1.02,4.28c.03,2.96,1.12,5.75,2.95,8.04.51.63,1.59.53,2.12,0,.63-.63.51-1.49,0-2.12h0Z"/><path class="j" d="M99.64,86.3c-1.71,8.9-1.7,18.07.11,26.95,1.81,8.92,5.71,17.15,10.02,25.11,2.22,4.11,4.25,8.8,8.08,11.67.89.67,2.34-.23,2.26-1.3-.33-4.15-2.56-7.59-4.41-11.2s-3.64-7.69-5.12-11.68c-3.01-8.11-5.13-16.54-6.52-25.08-.8-4.94-1.32-9.91-1.63-14.9-.12-1.95-2.82-1.91-3,0-1.12,11.76-.24,23.68,2.61,35.14.34,1.38,2.61,1.48,2.89,0,.76-3.95.81-7.89.2-11.86-.27-1.72-2.9-1.23-2.95.4-.14,4.95.71,9.9,2.61,14.47.62,1.49,2.9,1.41,2.95-.4.16-6.06-1.35-12.16-4.59-17.3-.84-1.34-2.64-.68-2.8.76-.37,3.37.78,6.56,1.99,9.65,1.29,3.29,2.62,6.57,3.99,9.83,2.71,6.46,5.58,12.84,8.61,19.16l2.36-1.82c-5.5-6.67-9.27-14.62-11.4-22.98-.48-1.87-3.37-1.08-2.89.8,2.27,8.88,6.34,17.22,12.17,24.3,1.15,1.39,3.04-.38,2.36-1.82-2.92-6.08-5.69-12.23-8.31-18.44-1.28-3.04-2.52-6.09-3.72-9.15s-2.51-6.17-2.14-9.52l-2.8.76c2.97,4.73,4.33,10.23,4.18,15.79l2.95-.4c-1.81-4.35-2.64-8.96-2.51-13.67l-2.95.4c.53,3.4.45,6.89-.2,10.27h2.89c-2.78-11.22-3.59-22.84-2.5-34.34h-3c1.07,17.22,4.77,34.39,12.14,50.04.98,2.08,2.05,4.12,3.13,6.14s2.21,4.27,2.4,6.68l2.26-1.3c-3.09-2.32-4.78-6.49-6.57-9.8-2-3.67-3.94-7.38-5.63-11.2-3.48-7.89-5.51-16.31-5.77-24.94-.14-4.83.23-9.66,1.15-14.41.36-1.89-2.53-2.69-2.89-.8h0Z"/><path class="j" d="M208.37,185.97c6.73-6.26,13.35-12.88,16.52-21.71l-2.74.36c.44.99-.33,2.27-.83,3.08-.61.98-1.35,1.88-2.06,2.79-1.59,2.02-3.25,3.98-5.06,5.8-3.31,3.33-7.18,6.21-11.88,7.09-1.55.29-1.3,2.47,0,2.89,2.51.82,5.2,1.48,7.71.33,1.19-.54,2.19-1.43,3.18-2.26s1.99-1.69,2.94-2.59c3.95-3.78,6.18-8.6,8.29-13.55.32-.75.22-1.6-.54-2.05-.63-.38-1.73-.21-2.05.54-1.84,4.31-3.71,8.74-7.03,12.15-1.55,1.6-3.28,3.22-5.11,4.49-2.1,1.47-4.35.79-6.6.06v2.89c5.53-1.04,10.15-4.64,13.94-8.63,2.03-2.13,3.87-4.43,5.65-6.76s3.29-4.93,2.02-7.79c-.57-1.29-2.35-.72-2.74.36-2.98,8.3-9.44,14.52-15.75,20.39-1.42,1.32.71,3.44,2.12,2.12h0Z"/></g></svg>