<svg width="545" height="806" viewBox="0 0 545 806" fill="none" xmlns="http://www.w3.org/2000/svg">
<path d="M15.6673 143.821C39.3748 84.5514 58.7435 11.1931 97.3882 73.745C107.894 90.766 136.985 5.51332 174.054 79.2773C184.29 99.6545 223.129 16.4857 246.508 55.304C269.887 94.1222 304.091 42.2846 332.441 38.7071C369.594 34.0046 370.26 95.284 407.742 93.0342C442.848 90.932 456.53 61.7583 485.899 68.3418C509.025 73.5237 531.435 103.324 540.534 147.509C550.004 193.501 526.515 204.971 528.049 282.349C529.498 355.32 548.462 336.031 543.854 394.305C539.498 449.406 523.07 455.934 524.535 501.318C525.951 545.133 559.077 558.89 538.007 621.461C528.428 649.897 533.946 735.739 516.102 763.456C493.92 797.904 486.986 712.817 443.75 748.261C422.957 765.319 419.899 804.119 403.353 805.889C378.853 808.508 371.136 764.046 340.124 756.504C323.426 752.447 323.94 764.913 294.462 771.312C256.306 779.611 242.051 734.817 207.526 741.677C169.454 749.238 177.753 799.73 153.085 792.704C124.162 784.46 121.087 747.56 94.2457 746.601C70.3192 745.753 64.0427 774.761 44.1938 766.351C29.1723 759.989 13.0219 735.002 9.0707 703.8C2.44878 651.556 35.2888 623.6 29.265 567.152C25.2042 529.071 8.04287 521.105 10.8231 493.075C14.0666 460.379 25.4064 462.573 27.5042 432.164C29.4756 403.709 10.5282 380.419 8.18609 336.677C7.02346 314.916 18.7256 269.183 18.7256 269.183C23.4603 214.782 5.0689 170.302 15.6673 143.821Z" fill="#FFF4A2"/>
<path d="M7.56248 105.371C31.2784 46.1018 50.6471 -27.2564 89.2833 35.2954C99.7891 52.3164 128.88 -32.9362 165.949 40.8277C176.185 61.205 215.024 -21.9638 238.403 16.8544C262.835 57.4246 295.987 3.8351 324.336 0.257545C361.49 -4.44491 362.155 56.8345 399.637 54.5847C434.744 52.4824 448.425 23.3088 477.794 29.8922C500.921 35.0741 523.331 64.8748 532.429 109.059C541.899 155.051 518.411 166.521 519.944 243.9C521.393 316.871 540.357 297.582 535.749 355.855C531.393 410.957 514.965 417.485 516.431 462.868C517.846 506.684 550.972 520.441 529.902 583.011C520.323 611.447 525.841 697.29 507.997 725.007C485.815 759.454 478.881 674.368 435.645 709.811C414.853 726.869 411.794 765.669 395.248 767.439C370.749 770.058 363.031 725.597 332.02 718.054C315.322 713.997 315.835 726.464 286.357 732.863C248.201 741.161 233.946 696.368 199.421 703.228C161.349 710.789 169.648 761.28 144.98 754.254C116.057 746.011 112.982 709.111 86.1409 708.152C62.2144 707.303 55.9379 736.311 36.089 727.902C21.0675 721.54 4.91708 696.552 0.965838 665.35C-5.65608 613.107 27.1839 585.15 21.1602 528.702C17.0994 490.622 -0.0619919 482.655 2.7182 454.625C5.96176 421.929 17.3016 424.124 19.3994 393.714C21.3708 365.26 2.42333 341.969 0.0812302 298.227C-1.0814 276.467 10.6207 230.733 10.6207 230.733C15.3554 176.332 -3.03596 131.852 7.56248 105.371Z" fill="#FFC3E7"/>
</svg>
