<?xml version="1.0" encoding="UTF-8"?><svg id="b" xmlns="http://www.w3.org/2000/svg" width="556.96" height="580.87" viewBox="0 0 556.96 580.87"><defs><style>.d,.e,.f,.g,.h,.i{font-family:MyriadPro-Bold, 'Myriad Pro';font-weight:700;}.d,.e,.i{fill:#ff8dd1;}.d,.h{font-size:69px;}.e,.g{font-size:72px;}.f,.g,.h{fill:#ffc3e7;}.f,.i{font-size:70px;}</style></defs><text class="i" transform="translate(81.21 289.12) rotate(-93.88)"><tspan x="0" y="0"> </tspan></text><text class="d" transform="translate(79.97 277.11) rotate(-88.72)"><tspan x="0" y="0">I</tspan></text><text class="d" transform="translate(78.98 260.8) rotate(-79.97)"><tspan x="0" y="0">D</tspan></text><text class="d" transform="translate(85.9 219.08) rotate(-68.14)"><tspan x="0" y="0">A</tspan></text><text class="d" transform="translate(101.18 180.97) rotate(-57.48)"><tspan x="0" y="0">S</tspan></text><text class="d" transform="translate(120.21 152.09) rotate(-50.9)"><tspan x="0" y="0"> </tspan></text><text class="d" transform="translate(126.74 142.76) rotate(-44.33)"><tspan x="0" y="0">S</tspan></text><text class="d" transform="translate(150.43 119.13) rotate(-34.67)"><tspan x="0" y="0">T</tspan></text><text class="d" transform="translate(177.95 99.49) rotate(-24.48)"><tspan x="0" y="0">R</tspan></text><text class="d" transform="translate(212.48 84.33) rotate(-16.61)"><tspan x="0" y="0">I</tspan></text><text class="d" transform="translate(228.04 78.63) rotate(-8.58)"><tspan x="0" y="0">K</tspan></text><text class="d" transform="translate(265.67 72.55) rotate(2.22)"><tspan x="0" y="0">K</tspan></text><text class="d" transform="translate(303.96 73.91) rotate(12.47)"><tspan x="0" y="0">E</tspan></text><text class="d" transform="translate(337.22 81.79) rotate(19.08)"><tspan x="0" y="0"> </tspan></text><text class="d" transform="translate(347.94 84.06) rotate(26.98)"><tspan x="0" y="0">U</tspan></text><text class="d" transform="translate(385.88 102.79) rotate(39.16)"><tspan x="0" y="0">N</tspan></text><text class="d" transform="translate(419.58 131.25) rotate(47.79)"><tspan x="0" y="0">I</tspan></text><text class="d" transform="translate(431.46 142.72) rotate(55.97)"><tspan x="0" y="0">V</tspan></text><text class="d" transform="translate(453.76 175.62) rotate(66.43)"><tspan x="0" y="0">E</tspan></text><text class="d" transform="translate(467.39 205.55) rotate(76.54)"><tspan x="0" y="0">R</tspan></text><text class="d" transform="translate(476.03 241.62) rotate(86.12)"><tspan x="0" y="0">S</tspan></text><text class="d" transform="translate(477.72 276.02) rotate(93.09)"><tspan x="0" y="0"> </tspan></text><text class="d" transform="translate(477.09 288.5) rotate(96.7)"><tspan x="0" y="0"> </tspan></text><text class="e" transform="translate(474.71 300.66) rotate(100.39)"><tspan x="0" y="0"> </tspan></text><text class="i" transform="translate(35.64 283.78) rotate(92.99)"><tspan x="0" y="0"> </tspan></text><text class="d" transform="translate(35.11 299.66) rotate(88.67)"><tspan x="0" y="0">I</tspan></text><text class="d" transform="translate(34.85 322.98) rotate(80.04)"><tspan x="0" y="0">D</tspan></text><text class="d" transform="translate(44.33 373.94) rotate(68.22)"><tspan x="0" y="0">A</tspan></text><text class="d" transform="translate(63.49 419.76) rotate(57.52)"><tspan x="0" y="0">S</tspan></text><text class="d" transform="translate(85.64 453.01) rotate(50.92)"><tspan x="0" y="0"> </tspan></text><text class="d" transform="translate(95.75 466.27) rotate(44.34)"><tspan x="0" y="0">S</tspan></text><text class="d" transform="translate(125.46 494.87) rotate(34.71)"><tspan x="0" y="0">T</tspan></text><text class="d" transform="translate(160.14 518.61) rotate(24.56)"><tspan x="0" y="0">R</tspan></text><text class="d" transform="translate(200.63 536.07) rotate(16.7)"><tspan x="0" y="0">I</tspan></text><text class="d" transform="translate(222.54 543.23) rotate(8.63)"><tspan x="0" y="0">K</tspan></text><text class="d" transform="translate(268.86 549.75) rotate(-2.02)"><tspan x="0" y="0">K</tspan></text><text class="d" transform="translate(315.43 547.4) rotate(-12.39)"><tspan x="0" y="0">E</tspan></text><text class="d" transform="translate(353.85 538.13) rotate(-18.99)"><tspan x="0" y="0"> </tspan></text><text class="d" transform="translate(370.49 533.37) rotate(-26.91)"><tspan x="0" y="0">U</tspan></text><text class="d" transform="translate(416.74 509.31) rotate(-39.14)"><tspan x="0" y="0">N</tspan></text><text class="d" transform="translate(455.54 476.03) rotate(-47.78)"><tspan x="0" y="0">I</tspan></text><text class="d" transform="translate(471.51 459.36) rotate(-55.93)"><tspan x="0" y="0">V</tspan></text><text class="d" transform="translate(497.91 419.06) rotate(-66.35)"><tspan x="0" y="0">E</tspan></text><text class="d" transform="translate(514.2 381.4) rotate(-76.45)"><tspan x="0" y="0">R</tspan></text><text class="d" transform="translate(524.24 337.42) rotate(-86.58)"><tspan x="0" y="0">S</tspan></text><text class="d" transform="translate(525.88 297.22) rotate(-93.88)"><tspan x="0" y="0"> </tspan></text><text class="d" transform="translate(524.92 282.2) rotate(-96.66)"><tspan x="0" y="0"> </tspan></text><text class="e" transform="translate(524.09 266.71) rotate(-100.32)"><tspan x="0" y="0"> </tspan></text><text class="f" transform="translate(74.19 289.62) rotate(-93.88)"><tspan x="0" y="0"> </tspan></text><text class="h" transform="translate(72.95 277.61) rotate(-88.72)"><tspan x="0" y="0">I</tspan></text><text class="h" transform="translate(71.96 261.31) rotate(-79.97)"><tspan x="0" y="0">D</tspan></text><text class="h" transform="translate(78.88 219.58) rotate(-68.14)"><tspan x="0" y="0">A</tspan></text><text class="h" transform="translate(94.16 181.48) rotate(-57.48)"><tspan x="0" y="0">S</tspan></text><text class="h" transform="translate(113.19 152.59) rotate(-50.9)"><tspan x="0" y="0"> </tspan></text><text class="h" transform="translate(119.72 143.26) rotate(-44.33)"><tspan x="0" y="0">S</tspan></text><text class="h" transform="translate(143.41 119.63) rotate(-34.67)"><tspan x="0" y="0">T</tspan></text><text class="h" transform="translate(170.93 99.99) rotate(-24.48)"><tspan x="0" y="0">R</tspan></text><text class="h" transform="translate(205.46 84.83) rotate(-16.61)"><tspan x="0" y="0">I</tspan></text><text class="h" transform="translate(221.02 79.13) rotate(-8.58)"><tspan x="0" y="0">K</tspan></text><text class="h" transform="translate(258.65 73.05) rotate(2.22)"><tspan x="0" y="0">K</tspan></text><text class="h" transform="translate(296.94 74.41) rotate(12.47)"><tspan x="0" y="0">E</tspan></text><text class="h" transform="translate(330.19 82.29) rotate(19.08)"><tspan x="0" y="0"> </tspan></text><text class="h" transform="translate(340.91 84.56) rotate(26.98)"><tspan x="0" y="0">U</tspan></text><text class="h" transform="translate(378.86 103.29) rotate(39.16)"><tspan x="0" y="0">N</tspan></text><text class="h" transform="translate(412.56 131.75) rotate(47.79)"><tspan x="0" y="0">I</tspan></text><text class="h" transform="translate(424.44 143.22) rotate(55.97)"><tspan x="0" y="0">V</tspan></text><text class="h" transform="translate(446.74 176.12) rotate(66.43)"><tspan x="0" y="0">E</tspan></text><text class="h" transform="translate(460.37 206.06) rotate(76.54)"><tspan x="0" y="0">R</tspan></text><text class="h" transform="translate(469.01 242.12) rotate(86.12)"><tspan x="0" y="0">S</tspan></text><text class="h" transform="translate(470.7 276.52) rotate(93.09)"><tspan x="0" y="0"> </tspan></text><text class="h" transform="translate(470.07 289) rotate(96.7)"><tspan x="0" y="0"> </tspan></text><text class="g" transform="translate(467.69 301.17) rotate(100.39)"><tspan x="0" y="0"> </tspan></text><text class="f" transform="translate(28.62 284.28) rotate(92.99)"><tspan x="0" y="0"> </tspan></text><text class="h" transform="translate(28.09 300.16) rotate(88.67)"><tspan x="0" y="0">I</tspan></text><text class="h" transform="translate(27.83 323.48) rotate(80.04)"><tspan x="0" y="0">D</tspan></text><text class="h" transform="translate(37.31 374.44) rotate(68.22)"><tspan x="0" y="0">A</tspan></text><text class="h" transform="translate(56.47 420.26) rotate(57.52)"><tspan x="0" y="0">S</tspan></text><text class="h" transform="translate(78.62 453.52) rotate(50.92)"><tspan x="0" y="0"> </tspan></text><text class="h" transform="translate(88.73 466.77) rotate(44.34)"><tspan x="0" y="0">S</tspan></text><text class="h" transform="translate(118.44 495.37) rotate(34.71)"><tspan x="0" y="0">T</tspan></text><text class="h" transform="translate(153.12 519.11) rotate(24.56)"><tspan x="0" y="0">R</tspan></text><text class="h" transform="translate(193.61 536.58) rotate(16.7)"><tspan x="0" y="0">I</tspan></text><text class="h" transform="translate(215.52 543.74) rotate(8.63)"><tspan x="0" y="0">K</tspan></text><text class="h" transform="translate(261.84 550.25) rotate(-2.02)"><tspan x="0" y="0">K</tspan></text><text class="h" transform="translate(308.41 547.91) rotate(-12.39)"><tspan x="0" y="0">E</tspan></text><text class="h" transform="translate(346.83 538.63) rotate(-18.99)"><tspan x="0" y="0"> </tspan></text><text class="h" transform="translate(363.47 533.88) rotate(-26.91)"><tspan x="0" y="0">U</tspan></text><text class="h" transform="translate(409.72 509.81) rotate(-39.14)"><tspan x="0" y="0">N</tspan></text><text class="h" transform="translate(448.52 476.53) rotate(-47.78)"><tspan x="0" y="0">I</tspan></text><text class="h" transform="translate(464.49 459.86) rotate(-55.93)"><tspan x="0" y="0">V</tspan></text><text class="h" transform="translate(490.89 419.56) rotate(-66.35)"><tspan x="0" y="0">E</tspan></text><text class="h" transform="translate(507.18 381.9) rotate(-76.45)"><tspan x="0" y="0">R</tspan></text><text class="h" transform="translate(517.22 337.92) rotate(-86.58)"><tspan x="0" y="0">S</tspan></text><text class="h" transform="translate(518.85 297.73) rotate(-93.88)"><tspan x="0" y="0"> </tspan></text><text class="h" transform="translate(517.9 282.7) rotate(-96.66)"><tspan x="0" y="0"> </tspan></text><text class="g" transform="translate(517.07 267.21) rotate(-100.32)"><tspan x="0" y="0"> </tspan></text></svg>