<?xml version="1.0" encoding="UTF-8"?><svg id="c" xmlns="http://www.w3.org/2000/svg" width="190.86" height="166.99" viewBox="0 0 190.86 166.99"><defs><style>.d{fill:#ffc3e7;stroke:#ff8dd1;stroke-miterlimit:10;stroke-width:3px;}</style></defs><path class="d" d="M14.16,18.56s-42,38,27,91c0,0,75,87,127,44s-8-81-8-81c0,0-51.39-60.49-98.55-69.85-17.3-3.43-34.03.01-47.45,15.85Z"/><path class="d" d="M64.66,3.06s53.17,116.01,40.09,154.5"/><path class="d" d="M88.95,13.73s48.76,113.87,34.24,150.45"/><path class="d" d="M104.95,22.61s48.97,108.69,34.51,143.55"/><path class="d" d="M123.16,36.28s49.54,93.97,35.28,123.95"/><path class="d" d="M159.52,131.24s17.04,1.12,19.59,11.47"/><path class="d" d="M155.49,115.99s26.67,1.52,30.67,15.57"/><path class="d" d="M149.22,98.09s34.73,1.51,39.93,15.47"/><path class="d" d="M145.98,83.18s31.47,1.11,36.18,11.37"/><path class="d" d="M139.03,68.94s21.85.65,25.13,6.62"/><path class="d" d="M95.43,83.73s-41.77.33-54.27,25.83"/><path class="d" d="M90.16,68.56s-46.18.41-60,32"/><path class="d" d="M85.16,52.56s-53.42,6.25-66.21,37.2"/><path class="d" d="M78.16,36.56s-56.15,6.56-69.68,38.27"/><path class="d" d="M72.79,20.71S16.65,27.27,3.11,58.98"/><path class="d" d="M67.16,7.56S16.87,13.35,4.11,35.98"/><line class="d" x1="76.74" y1="86.15" x2="49.92" y2="118.81"/><line class="d" x1="95.41" y1="84.23" x2="59.16" y2="127.56"/><line class="d" x1="100.16" y1="99.56" x2="70.88" y2="137.23"/><line class="d" x1="104.16" y1="118.56" x2="83.36" y2="146.4"/><line class="d" x1="107.16" y1="138.56" x2="95.36" y2="153.4"/></svg>