<?xml version="1.0" encoding="UTF-8"?><svg id="c" xmlns="http://www.w3.org/2000/svg" width="182.55" height="241.83" viewBox="0 0 182.55 241.83"><defs><style>.d{fill:#b3b3b3;}.d,.e{stroke:#999;stroke-miterlimit:10;}.e{fill:#ccc;}</style></defs><path class="d" d="M178.98,171.78c-12-32-53-23-53-23-9-13-40-36-40-36l-10-14-3-8C37.98-9.22,21.98.78,21.98.78l24,66L1.98,11.78c-13,22,64,109,61,110s4,10,1,10-3,8-3,8l14,12v5s-9,1-12,19,6,39,23,57,32,2,32,2c0,0,4-3,7-20s-18-50-21-56-20-14-20-14c0,0-8-9-6-8s6-4,6-4h9s1,1,16,13,12,18,12,18c-3,52,43,49,43,49,0,0,27-9,15-41ZM78.98,163.78c8-4,15.67,2.27,15.67,2.27,0,0,14.33,14.73,20.33,39.73s-14,26-14,26c0,0-9,1-22-27s0-41,0-41ZM170.33,198.78s-6.35,13-27.35,0-7.33-37.74-7.33-37.74c0,0,3.33-11.26,24.33,4.74s10.35,33,10.35,33Z"/><line class="d" x1="46.48" y1="67.28" x2="74.18" y2="93.98"/><path class="e" d="M81.98,121.28c0,3.59-2.91,6.5-6.5,6.5-1.79,0-3.42-.73-4.6-1.9s-1.9-2.8-1.9-4.6c0-3.59,2.91-6.5,6.5-6.5,1.61,0,3.08.58,4.22,1.55,1.4,1.19,2.28,2.97,2.28,4.95Z"/><line class="e" x1="79.98" y1="116.78" x2="70.48" y2="126.28"/><path class="e" d="M77.98,136.78s-8,2-14-5"/></svg>