<svg width="474" height="316" viewBox="0 0 474 316" fill="none" xmlns="http://www.w3.org/2000/svg">
<g clip-path="url(#clip0_40000011_2864)">
<path d="M13.6216 56.3878C34.2408 33.1501 51.0864 4.3887 84.6971 28.9133C93.8343 35.5867 119.136 2.16182 151.376 31.0823C160.279 39.0716 194.058 6.46374 214.391 21.6832C234.725 36.9026 264.474 16.5787 289.131 15.176C321.444 13.3324 322.023 37.3581 354.623 36.476C385.156 35.6518 397.055 24.2137 422.599 26.7949C442.712 28.8265 462.203 40.5104 470.117 57.8338C478.352 75.8657 457.924 80.3629 459.257 110.701C460.518 139.31 477.012 131.747 473.004 154.595C469.215 176.198 454.927 178.758 456.202 196.551C457.433 213.73 486.244 219.124 467.918 243.655C459.587 254.804 464.387 288.46 448.867 299.327C429.574 312.833 423.544 279.473 385.94 293.37C367.856 300.058 365.196 315.27 350.805 315.964C329.497 316.991 322.785 299.559 295.813 296.602C281.29 295.011 281.737 299.899 256.099 302.407C222.913 305.661 210.515 288.099 180.488 290.789C147.375 293.753 154.593 313.549 133.138 310.794C107.983 307.562 105.309 293.095 81.9639 292.719C61.1542 292.386 55.6953 303.759 38.4321 300.462C25.3674 297.968 11.3208 288.171 7.88427 275.938C2.12496 255.455 30.687 244.494 25.448 222.363C21.9162 207.432 6.99033 204.309 9.40836 193.319C12.2294 180.5 22.092 181.361 23.9165 169.438C25.6312 158.282 9.15191 149.15 7.1149 132C6.10372 123.469 16.2814 105.538 16.2814 105.538C20.3994 84.2093 4.40377 66.7702 13.6216 56.3878Z" fill="#FFF4A2"/>
<path d="M6.57247 41.313C27.199 18.0753 44.0446 -10.6861 77.6479 13.8385C86.7851 20.5119 112.087 -12.913 144.327 16.0075C153.23 23.9968 187.009 -8.61108 207.342 6.60834C228.592 22.5146 257.425 1.50386 282.081 0.101219C314.395 -1.74246 314.974 22.2833 347.573 21.4012C378.107 20.5769 390.006 9.13888 415.549 11.72C435.663 13.7517 455.154 25.4356 463.067 42.759C471.303 60.7909 450.875 65.2881 452.208 95.6257C453.469 124.235 469.962 116.673 465.954 139.52C462.166 161.123 447.878 163.683 449.153 181.476C450.384 198.655 479.195 204.049 460.869 228.581C452.538 239.729 457.337 273.386 441.818 284.253C422.525 297.758 416.495 264.399 378.891 278.295C360.807 284.983 358.147 300.195 343.756 300.889C322.448 301.916 315.736 284.484 288.764 281.527C274.241 279.936 274.688 284.824 249.05 287.333C215.864 290.586 203.466 273.024 173.439 275.714C140.326 278.678 147.544 298.474 126.089 295.72C100.934 292.488 98.2598 278.02 74.9148 277.644C54.1051 277.312 48.6462 288.685 31.3829 285.388C18.3182 282.893 4.27167 273.096 0.835139 260.863C-4.92417 240.38 23.6379 229.419 18.3988 207.288C14.867 192.358 -0.0587993 189.234 2.35923 178.244C5.18027 165.425 15.0429 166.286 16.8674 154.363C18.582 143.207 2.10277 134.076 0.0657659 116.926C-0.945411 108.394 9.2323 90.4634 9.2323 90.4634C13.3503 69.1345 -2.64536 51.6954 6.57247 41.313Z" fill="#A2DFFF"/>
</g>
<defs>
<clipPath id="clip0_40000011_2864">
<rect width="474" height="316" fill="white"/>
</clipPath>
</defs>
</svg>
