<svg width="316" height="211" viewBox="0 0 316 211" fill="none" xmlns="http://www.w3.org/2000/svg">
<g clip-path="url(#clip0_40000011_2864)">
<path d="M9.08094 37.6513C22.8271 22.135 34.0575 2.9304 56.4646 19.306C62.5561 23.762 79.4237 1.44346 100.917 20.7543C106.852 26.0889 129.372 4.31595 142.927 14.4783C156.483 24.6406 176.316 11.0699 192.754 10.1333C214.296 8.90227 214.682 24.9448 236.415 24.3558C256.77 23.8054 264.703 16.168 281.732 17.8915C295.141 19.2481 308.135 27.0496 313.411 38.6168C318.902 50.6572 305.282 53.66 306.171 73.9171C307.012 93.0203 318.008 87.9705 315.336 103.226C312.81 117.651 303.284 119.36 304.134 131.241C304.955 142.712 324.163 146.313 311.945 162.694C306.391 170.138 309.591 192.611 299.245 199.867C286.383 208.885 282.362 186.61 257.293 195.889C245.237 200.355 243.464 210.512 233.87 210.976C219.665 211.661 215.19 200.022 197.209 198.047C187.527 196.985 187.825 200.249 170.732 201.924C148.609 204.096 140.343 192.37 120.325 194.166C98.2501 196.145 103.062 209.363 88.7587 207.524C71.9888 205.366 70.2058 195.706 54.6425 195.455C40.7694 195.233 37.1301 202.827 25.6213 200.625C16.9115 198.96 7.54708 192.418 5.25606 184.25C1.41652 170.573 20.4579 163.254 16.9652 148.476C14.6107 138.507 4.6601 136.421 6.27212 129.083C8.15281 120.524 14.7279 121.098 15.9442 113.137C17.0873 105.688 6.10115 99.5909 4.74314 88.1395C4.06903 82.4428 10.8542 70.4701 10.8542 70.4701C13.5995 56.2283 2.93573 44.5839 9.08094 37.6513Z" fill="#FFC3E7"/>
<path d="M4.38173 27.5855C18.1327 12.0692 29.3632 -7.1354 51.7654 9.2402C57.8568 13.6962 74.7244 -8.62234 96.218 10.6885C102.153 16.0231 124.673 -5.74985 138.228 4.41249C152.395 15.0335 171.617 1.00412 188.054 0.0675454C209.597 -1.16352 209.983 14.879 231.716 14.29C252.071 13.7396 260.004 6.10219 277.033 7.82568C290.442 9.18227 303.436 16.9839 308.712 28.551C314.202 40.5914 300.583 43.5942 301.472 63.8513C302.312 82.9545 313.308 77.9048 310.636 93.1603C308.111 107.586 298.585 109.295 299.435 121.176C300.256 132.646 319.463 136.248 307.246 152.628C301.692 160.072 304.892 182.545 294.545 189.801C281.683 198.82 277.663 176.545 252.594 185.823C240.538 190.289 238.765 200.447 229.171 200.91C214.965 201.596 210.491 189.956 192.509 187.981C182.828 186.919 183.125 190.183 166.033 191.858C143.909 194.031 135.644 182.304 115.626 184.1C93.5509 186.079 98.3625 199.298 84.0595 197.458C67.2896 195.3 65.5066 185.64 49.9433 185.389C36.0701 185.167 32.4309 192.761 20.922 190.559C12.2122 188.894 2.84786 182.352 0.556841 174.184C-3.2827 160.507 15.7587 153.188 12.266 138.41C9.91145 128.441 -0.0391182 126.356 1.5729 119.018C3.45359 110.458 10.0287 111.033 11.245 103.072C12.3881 95.6225 1.40193 89.5251 0.0439253 78.0737C-0.630192 72.377 6.15495 60.4043 6.15495 60.4043C8.90027 46.1625 -1.76349 34.5181 4.38173 27.5855Z" fill="#B5D0AE"/>
</g>
<defs>
<clipPath id="clip0_40000011_2864">
<rect width="316" height="211" fill="white"/>
</clipPath>
</defs>
</svg>
